# xmcd
#
# Track frame offsets: 
#        150
#        20037
#        38207
#        53690
#        76322
#        92922
#        120225
#        135592
#        147912
#        169337
#        186777
#        216735
#        236237
#        253585
#
# Disc length: 3645 seconds
#
# Revision: 2
# Processed by: cddbd v1.5.2PL0 Copyright (c) Steve Scherf et al.
# Submitted via: ExactAudioCopy v0.99pb3
#
DISCID=ca0e3b0e
DTITLE=Lightnin' Slim - Blue Lightning
DYEAR=1992
DGENRE=Blues
TTITLE0=Mama, Talk To Your Ddaughter
TTITLE1=My Baby Left Me This Morning
TTITLE2=It's  Mighty Crazy
TTITLE3=Caress Me Baby
TTITLE4=I Love You Baby
TTITLE5=The Sky Is Crying
TTITLE6=G.I. Slim
TTITLE7=Help Me Spend My Gold
TTITLE8=My Little Angel Chile
TTITLE9=Too Close Blues
TTITLE10=I Want You To Love Me
TTITLE11=Bed Bug Blues
TTITLE12=I'm Tired Waitin' Baby
TTITLE13=Ah'w  Baby
EXTD=1992\n\n\nsubmitted by Stamppot
EXTT0=
EXTT1=
EXTT2=
EXTT3=
EXTT4=
EXTT5=
EXTT6=
EXTT7=
EXTT8=
EXTT9=
EXTT10=
EXTT11=
EXTT12=
EXTT13=
PLAYORDER=
